<?xml version="1.0" encoding="UTF-8" standalone="no"?>
<svg width="900" height="900" style='background-color: white;' xmlns="http://www.w3.org/2000/svg" xmlns:xlink="http://www.w3.org/1999/xlink">
<polygon points="100,399 95,391  105,391" style="fill:white;stroke:black;stroke-width:1" />
<polygon points="100,400 95,392  105,392" style="fill:white;stroke:black;stroke-width:1" />
<polygon points="100,401 95,393  105,393" style="fill:white;stroke:black;stroke-width:1" />
<polygon points="100,402 95,394  105,394" style="fill:white;stroke:black;stroke-width:1" />
<polygon points="100,403 95,395  105,395" style="fill:white;stroke:black;stroke-width:1" />
<polygon points="100,404 95,396  105,396" style="fill:white;stroke:black;stroke-width:1" />
<polygon points="100,405 95,397  105,397" style="fill:white;stroke:black;stroke-width:1" />
<polygon points="100,406 95,398  105,398" style="fill:white;stroke:black;stroke-width:1" />
<polygon points="100,407 95,399  105,399" style="fill:white;stroke:black;stroke-width:1" />
<polygon points="100,408 95,400  105,400" style="fill:white;stroke:black;stroke-width:1" />
<polygon points="100,409 95,401  105,401" style="fill:white;stroke:black;stroke-width:1" />
<polygon points="100,410 95,402  105,402" style="fill:white;stroke:black;stroke-width:1" />
<polygon points="100,411 95,403  105,403" style="fill:white;stroke:black;stroke-width:1" />
<polygon points="101,380 96,372  106,372" style="fill:white;stroke:black;stroke-width:1" />
<polygon points="101,381 96,373  106,373" style="fill:white;stroke:black;stroke-width:1" />
<polygon points="101,429 96,421  106,421" style="fill:white;stroke:black;stroke-width:1" />
<polygon points="101,430 96,422  106,422" style="fill:white;stroke:black;stroke-width:1" />
<polygon points="102,370 97,362  107,362" style="fill:white;stroke:black;stroke-width:1" />
<polygon points="102,440 97,432  107,432" style="fill:white;stroke:black;stroke-width:1" />
<polygon points="103,363 98,355  108,355" style="fill:white;stroke:black;stroke-width:1" />
<polygon points="103,447 98,439  108,439" style="fill:white;stroke:black;stroke-width:1" />
<polygon points="104,356 99,348  109,348" style="fill:white;stroke:black;stroke-width:1" />
<polygon points="104,454 99,446  109,446" style="fill:white;stroke:black;stroke-width:1" />
<polygon points="106,345 101,337  111,337" style="fill:white;stroke:black;stroke-width:1" />
<polygon points="106,465 101,457  111,457" style="fill:white;stroke:black;stroke-width:1" />
<polygon points="108,336 103,328  113,328" style="fill:white;stroke:black;stroke-width:1" />
<polygon points="108,474 103,466  113,466" style="fill:white;stroke:black;stroke-width:1" />
<polygon points="109,332 104,324  114,324" style="fill:white;stroke:black;stroke-width:1" />
<polygon points="109,478 104,470  114,470" style="fill:white;stroke:black;stroke-width:1" />
<polygon points="110,328 105,320  115,320" style="fill:white;stroke:black;stroke-width:1" />
<polygon points="110,482 105,474  115,474" style="fill:white;stroke:black;stroke-width:1" />
<polygon points="112,321 107,313  117,313" style="fill:white;stroke:black;stroke-width:1" />
<polygon points="112,489 107,481  117,481" style="fill:white;stroke:black;stroke-width:1" />
<polygon points="119,300 114,292  124,292" style="fill:white;stroke:black;stroke-width:1" />
<polygon points="119,510 114,502  124,502" style="fill:white;stroke:black;stroke-width:1" />
<polygon points="125,285 120,277  130,277" style="fill:white;stroke:black;stroke-width:1" />
<polygon points="125,525 120,517  130,517" style="fill:white;stroke:black;stroke-width:1" />
<polygon points="139,257 134,249  144,249" style="fill:white;stroke:black;stroke-width:1" />
<polygon points="139,553 134,545  144,545" style="fill:white;stroke:black;stroke-width:1" />
<polygon points="142,252 137,244  147,244" style="fill:white;stroke:black;stroke-width:1" />
<polygon points="142,558 137,550  147,550" style="fill:white;stroke:black;stroke-width:1" />
<polygon points="145,247 140,239  150,239" style="fill:white;stroke:black;stroke-width:1" />
<polygon points="145,563 140,555  150,555" style="fill:white;stroke:black;stroke-width:1" />
<polygon points="157,229 152,221  162,221" style="fill:white;stroke:black;stroke-width:1" />
<polygon points="157,581 152,573  162,573" style="fill:white;stroke:black;stroke-width:1" />
<polygon points="160,225 155,217  165,217" style="fill:white;stroke:black;stroke-width:1" />
<polygon points="160,585 155,577  165,577" style="fill:white;stroke:black;stroke-width:1" />
<polygon points="163,221 158,213  168,213" style="fill:white;stroke:black;stroke-width:1" />
<polygon points="163,589 158,581  168,581" style="fill:white;stroke:black;stroke-width:1" />
<polygon points="167,216 162,208  172,208" style="fill:white;stroke:black;stroke-width:1" />
<polygon points="167,594 162,586  172,586" style="fill:white;stroke:black;stroke-width:1" />
<polygon points="172,210 167,202  177,202" style="fill:white;stroke:black;stroke-width:1" />
<polygon points="172,600 167,592  177,592" style="fill:white;stroke:black;stroke-width:1" />
<polygon points="180,201 175,193  185,193" style="fill:white;stroke:black;stroke-width:1" />
<polygon points="180,609 175,601  185,601" style="fill:white;stroke:black;stroke-width:1" />
<polygon points="181,200 176,192  186,192" style="fill:white;stroke:black;stroke-width:1" />
<polygon points="181,610 176,602  186,602" style="fill:white;stroke:black;stroke-width:1" />
<polygon points="195,186 190,178  200,178" style="fill:white;stroke:black;stroke-width:1" />
<polygon points="195,624 190,616  200,616" style="fill:white;stroke:black;stroke-width:1" />
<polygon points="196,185 191,177  201,177" style="fill:white;stroke:black;stroke-width:1" />
<polygon points="196,625 191,617  201,617" style="fill:white;stroke:black;stroke-width:1" />
<polygon points="205,177 200,169  210,169" style="fill:white;stroke:black;stroke-width:1" />
<polygon points="205,633 200,625  210,625" style="fill:white;stroke:black;stroke-width:1" />
<polygon points="211,172 206,164  216,164" style="fill:white;stroke:black;stroke-width:1" />
<polygon points="211,638 206,630  216,630" style="fill:white;stroke:black;stroke-width:1" />
<polygon points="216,168 211,160  221,160" style="fill:white;stroke:black;stroke-width:1" />
<polygon points="216,642 211,634  221,634" style="fill:white;stroke:black;stroke-width:1" />
<polygon points="220,165 215,157  225,157" style="fill:white;stroke:black;stroke-width:1" />
<polygon points="220,645 215,637  225,637" style="fill:white;stroke:black;stroke-width:1" />
<polygon points="224,162 219,154  229,154" style="fill:white;stroke:black;stroke-width:1" />
<polygon points="224,648 219,640  229,640" style="fill:white;stroke:black;stroke-width:1" />
<polygon points="242,150 237,142  247,142" style="fill:white;stroke:black;stroke-width:1" />
<polygon points="242,660 237,652  247,652" style="fill:white;stroke:black;stroke-width:1" />
<polygon points="247,147 242,139  252,139" style="fill:white;stroke:black;stroke-width:1" />
<polygon points="247,663 242,655  252,655" style="fill:white;stroke:black;stroke-width:1" />
<polygon points="252,144 247,136  257,136" style="fill:white;stroke:black;stroke-width:1" />
<polygon points="252,666 247,658  257,658" style="fill:white;stroke:black;stroke-width:1" />
<polygon points="280,130 275,122  285,122" style="fill:white;stroke:black;stroke-width:1" />
<polygon points="280,680 275,672  285,672" style="fill:white;stroke:black;stroke-width:1" />
<polygon points="295,124 290,116  300,116" style="fill:white;stroke:black;stroke-width:1" />
<polygon points="295,686 290,678  300,678" style="fill:white;stroke:black;stroke-width:1" />
<polygon points="316,117 311,109  321,109" style="fill:white;stroke:black;stroke-width:1" />
<polygon points="316,693 311,685  321,685" style="fill:white;stroke:black;stroke-width:1" />
<polygon points="323,115 318,107  328,107" style="fill:white;stroke:black;stroke-width:1" />
<polygon points="323,695 318,687  328,687" style="fill:white;stroke:black;stroke-width:1" />
<polygon points="327,114 322,106  332,106" style="fill:white;stroke:black;stroke-width:1" />
<polygon points="327,696 322,688  332,688" style="fill:white;stroke:black;stroke-width:1" />
<polygon points="331,113 326,105  336,105" style="fill:white;stroke:black;stroke-width:1" />
<polygon points="331,697 326,689  336,689" style="fill:white;stroke:black;stroke-width:1" />
<polygon points="340,111 335,103  345,103" style="fill:white;stroke:black;stroke-width:1" />
<polygon points="340,699 335,691  345,691" style="fill:white;stroke:black;stroke-width:1" />
<polygon points="351,109 346,101  356,101" style="fill:white;stroke:black;stroke-width:1" />
<polygon points="351,701 346,693  356,693" style="fill:white;stroke:black;stroke-width:1" />
<polygon points="358,108 353,100  363,100" style="fill:white;stroke:black;stroke-width:1" />
<polygon points="358,702 353,694  363,694" style="fill:white;stroke:black;stroke-width:1" />
<polygon points="365,107 360,99  370,99" style="fill:white;stroke:black;stroke-width:1" />
<polygon points="365,703 360,695  370,695" style="fill:white;stroke:black;stroke-width:1" />
<polygon points="375,106 370,98  380,98" style="fill:white;stroke:black;stroke-width:1" />
<polygon points="375,704 370,696  380,696" style="fill:white;stroke:black;stroke-width:1" />
<polygon points="376,106 371,98  381,98" style="fill:white;stroke:black;stroke-width:1" />
<polygon points="376,704 371,696  381,696" style="fill:white;stroke:black;stroke-width:1" />
<polygon points="394,105 389,97  399,97" style="fill:white;stroke:black;stroke-width:1" />
<polygon points="394,705 389,697  399,697" style="fill:white;stroke:black;stroke-width:1" />
<polygon points="395,105 390,97  400,97" style="fill:white;stroke:black;stroke-width:1" />
<polygon points="395,705 390,697  400,697" style="fill:white;stroke:black;stroke-width:1" />
<polygon points="396,105 391,97  401,97" style="fill:white;stroke:black;stroke-width:1" />
<polygon points="396,705 391,697  401,697" style="fill:white;stroke:black;stroke-width:1" />
<polygon points="397,105 392,97  402,97" style="fill:white;stroke:black;stroke-width:1" />
<polygon points="397,705 392,697  402,697" style="fill:white;stroke:black;stroke-width:1" />
<polygon points="398,105 393,97  403,97" style="fill:white;stroke:black;stroke-width:1" />
<polygon points="398,705 393,697  403,697" style="fill:white;stroke:black;stroke-width:1" />
<polygon points="399,105 394,97  404,97" style="fill:white;stroke:black;stroke-width:1" />
<polygon points="399,705 394,697  404,697" style="fill:white;stroke:black;stroke-width:1" />
<polygon points="400,105 395,97  405,97" style="fill:white;stroke:black;stroke-width:1" />
<polygon points="400,705 395,697  405,697" style="fill:white;stroke:black;stroke-width:1" />
<polygon points="401,105 396,97  406,97" style="fill:white;stroke:black;stroke-width:1" />
<polygon points="401,705 396,697  406,697" style="fill:white;stroke:black;stroke-width:1" />
<polygon points="402,105 397,97  407,97" style="fill:white;stroke:black;stroke-width:1" />
<polygon points="402,705 397,697  407,697" style="fill:white;stroke:black;stroke-width:1" />
<polygon points="403,105 398,97  408,97" style="fill:white;stroke:black;stroke-width:1" />
<polygon points="403,705 398,697  408,697" style="fill:white;stroke:black;stroke-width:1" />
<polygon points="404,105 399,97  409,97" style="fill:white;stroke:black;stroke-width:1" />
<polygon points="404,705 399,697  409,697" style="fill:white;stroke:black;stroke-width:1" />
<polygon points="405,105 400,97  410,97" style="fill:white;stroke:black;stroke-width:1" />
<polygon points="405,705 400,697  410,697" style="fill:white;stroke:black;stroke-width:1" />
<polygon points="406,105 401,97  411,97" style="fill:white;stroke:black;stroke-width:1" />
<polygon points="406,705 401,697  411,697" style="fill:white;stroke:black;stroke-width:1" />
<polygon points="424,106 419,98  429,98" style="fill:white;stroke:black;stroke-width:1" />
<polygon points="424,704 419,696  429,696" style="fill:white;stroke:black;stroke-width:1" />
<polygon points="425,106 420,98  430,98" style="fill:white;stroke:black;stroke-width:1" />
<polygon points="425,704 420,696  430,696" style="fill:white;stroke:black;stroke-width:1" />
<polygon points="435,107 430,99  440,99" style="fill:white;stroke:black;stroke-width:1" />
<polygon points="435,703 430,695  440,695" style="fill:white;stroke:black;stroke-width:1" />
<polygon points="442,108 437,100  447,100" style="fill:white;stroke:black;stroke-width:1" />
<polygon points="442,702 437,694  447,694" style="fill:white;stroke:black;stroke-width:1" />
<polygon points="449,109 444,101  454,101" style="fill:white;stroke:black;stroke-width:1" />
<polygon points="449,701 444,693  454,693" style="fill:white;stroke:black;stroke-width:1" />
<polygon points="460,111 455,103  465,103" style="fill:white;stroke:black;stroke-width:1" />
<polygon points="460,699 455,691  465,691" style="fill:white;stroke:black;stroke-width:1" />
<polygon points="469,113 464,105  474,105" style="fill:white;stroke:black;stroke-width:1" />
<polygon points="469,697 464,689  474,689" style="fill:white;stroke:black;stroke-width:1" />
<polygon points="473,114 468,106  478,106" style="fill:white;stroke:black;stroke-width:1" />
<polygon points="473,696 468,688  478,688" style="fill:white;stroke:black;stroke-width:1" />
<polygon points="477,115 472,107  482,107" style="fill:white;stroke:black;stroke-width:1" />
<polygon points="477,695 472,687  482,687" style="fill:white;stroke:black;stroke-width:1" />
<polygon points="484,117 479,109  489,109" style="fill:white;stroke:black;stroke-width:1" />
<polygon points="484,693 479,685  489,685" style="fill:white;stroke:black;stroke-width:1" />
<polygon points="505,124 500,116  510,116" style="fill:white;stroke:black;stroke-width:1" />
<polygon points="505,686 500,678  510,678" style="fill:white;stroke:black;stroke-width:1" />
<polygon points="520,130 515,122  525,122" style="fill:white;stroke:black;stroke-width:1" />
<polygon points="520,680 515,672  525,672" style="fill:white;stroke:black;stroke-width:1" />
<polygon points="548,144 543,136  553,136" style="fill:white;stroke:black;stroke-width:1" />
<polygon points="548,666 543,658  553,658" style="fill:white;stroke:black;stroke-width:1" />
<polygon points="553,147 548,139  558,139" style="fill:white;stroke:black;stroke-width:1" />
<polygon points="553,663 548,655  558,655" style="fill:white;stroke:black;stroke-width:1" />
<polygon points="558,150 553,142  563,142" style="fill:white;stroke:black;stroke-width:1" />
<polygon points="558,660 553,652  563,652" style="fill:white;stroke:black;stroke-width:1" />
<polygon points="576,162 571,154  581,154" style="fill:white;stroke:black;stroke-width:1" />
<polygon points="576,648 571,640  581,640" style="fill:white;stroke:black;stroke-width:1" />
<polygon points="580,165 575,157  585,157" style="fill:white;stroke:black;stroke-width:1" />
<polygon points="580,645 575,637  585,637" style="fill:white;stroke:black;stroke-width:1" />
<polygon points="584,168 579,160  589,160" style="fill:white;stroke:black;stroke-width:1" />
<polygon points="584,642 579,634  589,634" style="fill:white;stroke:black;stroke-width:1" />
<polygon points="589,172 584,164  594,164" style="fill:white;stroke:black;stroke-width:1" />
<polygon points="589,638 584,630  594,630" style="fill:white;stroke:black;stroke-width:1" />
<polygon points="595,177 590,169  600,169" style="fill:white;stroke:black;stroke-width:1" />
<polygon points="595,633 590,625  600,625" style="fill:white;stroke:black;stroke-width:1" />
<polygon points="604,185 599,177  609,177" style="fill:white;stroke:black;stroke-width:1" />
<polygon points="604,625 599,617  609,617" style="fill:white;stroke:black;stroke-width:1" />
<polygon points="605,186 600,178  610,178" style="fill:white;stroke:black;stroke-width:1" />
<polygon points="605,624 600,616  610,616" style="fill:white;stroke:black;stroke-width:1" />
<polygon points="619,200 614,192  624,192" style="fill:white;stroke:black;stroke-width:1" />
<polygon points="619,610 614,602  624,602" style="fill:white;stroke:black;stroke-width:1" />
<polygon points="620,201 615,193  625,193" style="fill:white;stroke:black;stroke-width:1" />
<polygon points="620,609 615,601  625,601" style="fill:white;stroke:black;stroke-width:1" />
<polygon points="628,210 623,202  633,202" style="fill:white;stroke:black;stroke-width:1" />
<polygon points="628,600 623,592  633,592" style="fill:white;stroke:black;stroke-width:1" />
<polygon points="633,216 628,208  638,208" style="fill:white;stroke:black;stroke-width:1" />
<polygon points="633,594 628,586  638,586" style="fill:white;stroke:black;stroke-width:1" />
<polygon points="637,221 632,213  642,213" style="fill:white;stroke:black;stroke-width:1" />
<polygon points="637,589 632,581  642,581" style="fill:white;stroke:black;stroke-width:1" />
<polygon points="640,225 635,217  645,217" style="fill:white;stroke:black;stroke-width:1" />
<polygon points="640,585 635,577  645,577" style="fill:white;stroke:black;stroke-width:1" />
<polygon points="643,229 638,221  648,221" style="fill:white;stroke:black;stroke-width:1" />
<polygon points="643,581 638,573  648,573" style="fill:white;stroke:black;stroke-width:1" />
<polygon points="655,247 650,239  660,239" style="fill:white;stroke:black;stroke-width:1" />
<polygon points="655,563 650,555  660,555" style="fill:white;stroke:black;stroke-width:1" />
<polygon points="658,252 653,244  663,244" style="fill:white;stroke:black;stroke-width:1" />
<polygon points="658,558 653,550  663,550" style="fill:white;stroke:black;stroke-width:1" />
<polygon points="661,257 656,249  666,249" style="fill:white;stroke:black;stroke-width:1" />
<polygon points="661,553 656,545  666,545" style="fill:white;stroke:black;stroke-width:1" />
<polygon points="675,285 670,277  680,277" style="fill:white;stroke:black;stroke-width:1" />
<polygon points="675,525 670,517  680,517" style="fill:white;stroke:black;stroke-width:1" />
<polygon points="681,300 676,292  686,292" style="fill:white;stroke:black;stroke-width:1" />
<polygon points="681,510 676,502  686,502" style="fill:white;stroke:black;stroke-width:1" />
<polygon points="688,321 683,313  693,313" style="fill:white;stroke:black;stroke-width:1" />
<polygon points="688,489 683,481  693,481" style="fill:white;stroke:black;stroke-width:1" />
<polygon points="690,328 685,320  695,320" style="fill:white;stroke:black;stroke-width:1" />
<polygon points="690,482 685,474  695,474" style="fill:white;stroke:black;stroke-width:1" />
<polygon points="691,332 686,324  696,324" style="fill:white;stroke:black;stroke-width:1" />
<polygon points="691,478 686,470  696,470" style="fill:white;stroke:black;stroke-width:1" />
<polygon points="692,336 687,328  697,328" style="fill:white;stroke:black;stroke-width:1" />
<polygon points="692,474 687,466  697,466" style="fill:white;stroke:black;stroke-width:1" />
<polygon points="694,345 689,337  699,337" style="fill:white;stroke:black;stroke-width:1" />
<polygon points="694,465 689,457  699,457" style="fill:white;stroke:black;stroke-width:1" />
<polygon points="696,356 691,348  701,348" style="fill:white;stroke:black;stroke-width:1" />
<polygon points="696,454 691,446  701,446" style="fill:white;stroke:black;stroke-width:1" />
<polygon points="697,363 692,355  702,355" style="fill:white;stroke:black;stroke-width:1" />
<polygon points="697,447 692,439  702,439" style="fill:white;stroke:black;stroke-width:1" />
<polygon points="698,370 693,362  703,362" style="fill:white;stroke:black;stroke-width:1" />
<polygon points="698,440 693,432  703,432" style="fill:white;stroke:black;stroke-width:1" />
<polygon points="699,380 694,372  704,372" style="fill:white;stroke:black;stroke-width:1" />
<polygon points="699,381 694,373  704,373" style="fill:white;stroke:black;stroke-width:1" />
<polygon points="699,429 694,421  704,421" style="fill:white;stroke:black;stroke-width:1" />
<polygon points="699,430 694,422  704,422" style="fill:white;stroke:black;stroke-width:1" />
<polygon points="700,399 695,391  705,391" style="fill:white;stroke:black;stroke-width:1" />
<polygon points="700,400 695,392  705,392" style="fill:white;stroke:black;stroke-width:1" />
<polygon points="700,401 695,393  705,393" style="fill:white;stroke:black;stroke-width:1" />
<polygon points="700,402 695,394  705,394" style="fill:white;stroke:black;stroke-width:1" />
<polygon points="700,403 695,395  705,395" style="fill:white;stroke:black;stroke-width:1" />
<polygon points="700,404 695,396  705,396" style="fill:white;stroke:black;stroke-width:1" />
<polygon points="700,405 695,397  705,397" style="fill:white;stroke:black;stroke-width:1" />
<polygon points="700,406 695,398  705,398" style="fill:white;stroke:black;stroke-width:1" />
<polygon points="700,407 695,399  705,399" style="fill:white;stroke:black;stroke-width:1" />
<polygon points="700,408 695,400  705,400" style="fill:white;stroke:black;stroke-width:1" />
<polygon points="700,409 695,401  705,401" style="fill:white;stroke:black;stroke-width:1" />
<polygon points="700,410 695,402  705,402" style="fill:white;stroke:black;stroke-width:1" />
<polygon points="700,411 695,403  705,403" style="fill:white;stroke:black;stroke-width:1" />

</svg>