<?xml version="1.0" encoding="UTF-8" standalone="no"?>
<svg width="900" height="900" style='background-color: white;' xmlns="http://www.w3.org/2000/svg" xmlns:xlink="http://www.w3.org/1999/xlink">
<polygon points="100,402 95,394  105,394" style="fill:white;stroke:black;stroke-width:1" />
<polygon points="100,403 95,395  105,395" style="fill:white;stroke:black;stroke-width:1" />
<polygon points="100,404 95,396  105,396" style="fill:white;stroke:black;stroke-width:1" />
<polygon points="100,405 95,397  105,397" style="fill:white;stroke:black;stroke-width:1" />
<polygon points="100,406 95,398  105,398" style="fill:white;stroke:black;stroke-width:1" />
<polygon points="100,407 95,399  105,399" style="fill:white;stroke:black;stroke-width:1" />
<polygon points="100,408 95,400  105,400" style="fill:white;stroke:black;stroke-width:1" />
<polygon points="101,397 96,389  106,389" style="fill:white;stroke:black;stroke-width:1" />
<polygon points="101,413 96,405  106,405" style="fill:white;stroke:black;stroke-width:1" />
<polygon points="103,391 98,383  108,383" style="fill:white;stroke:black;stroke-width:1" />
<polygon points="103,419 98,411  108,411" style="fill:white;stroke:black;stroke-width:1" />
<polygon points="104,389 99,381  109,381" style="fill:white;stroke:black;stroke-width:1" />
<polygon points="104,421 99,413  109,413" style="fill:white;stroke:black;stroke-width:1" />
<polygon points="105,387 100,379  110,379" style="fill:white;stroke:black;stroke-width:1" />
<polygon points="105,423 100,415  110,415" style="fill:white;stroke:black;stroke-width:1" />
<polygon points="106,385 101,377  111,377" style="fill:white;stroke:black;stroke-width:1" />
<polygon points="106,425 101,417  111,417" style="fill:white;stroke:black;stroke-width:1" />
<polygon points="108,382 103,374  113,374" style="fill:white;stroke:black;stroke-width:1" />
<polygon points="108,428 103,420  113,420" style="fill:white;stroke:black;stroke-width:1" />
<polygon points="111,378 106,370  116,370" style="fill:white;stroke:black;stroke-width:1" />
<polygon points="111,432 106,424  116,424" style="fill:white;stroke:black;stroke-width:1" />
<polygon points="112,377 107,369  117,369" style="fill:white;stroke:black;stroke-width:1" />
<polygon points="112,433 107,425  117,425" style="fill:white;stroke:black;stroke-width:1" />
<polygon points="113,376 108,368  118,368" style="fill:white;stroke:black;stroke-width:1" />
<polygon points="113,434 108,426  118,426" style="fill:white;stroke:black;stroke-width:1" />
<polygon points="118,371 113,363  123,363" style="fill:white;stroke:black;stroke-width:1" />
<polygon points="118,439 113,431  123,431" style="fill:white;stroke:black;stroke-width:1" />
<polygon points="119,370 114,362  124,362" style="fill:white;stroke:black;stroke-width:1" />
<polygon points="119,440 114,432  124,432" style="fill:white;stroke:black;stroke-width:1" />
<polygon points="120,369 115,361  125,361" style="fill:white;stroke:black;stroke-width:1" />
<polygon points="120,441 115,433  125,433" style="fill:white;stroke:black;stroke-width:1" />
<polygon points="125,365 120,357  130,357" style="fill:white;stroke:black;stroke-width:1" />
<polygon points="125,445 120,437  130,437" style="fill:white;stroke:black;stroke-width:1" />
<polygon points="129,362 124,354  134,354" style="fill:white;stroke:black;stroke-width:1" />
<polygon points="129,448 124,440  134,440" style="fill:white;stroke:black;stroke-width:1" />
<polygon points="132,360 127,352  137,352" style="fill:white;stroke:black;stroke-width:1" />
<polygon points="132,450 127,442  137,442" style="fill:white;stroke:black;stroke-width:1" />
<polygon points="142,354 137,346  147,346" style="fill:white;stroke:black;stroke-width:1" />
<polygon points="142,456 137,448  147,448" style="fill:white;stroke:black;stroke-width:1" />
<polygon points="160,345 155,337  165,337" style="fill:white;stroke:black;stroke-width:1" />
<polygon points="160,465 155,457  165,457" style="fill:white;stroke:black;stroke-width:1" />
<polygon points="167,342 162,334  172,334" style="fill:white;stroke:black;stroke-width:1" />
<polygon points="167,468 162,460  172,460" style="fill:white;stroke:black;stroke-width:1" />
<polygon points="172,340 167,332  177,332" style="fill:white;stroke:black;stroke-width:1" />
<polygon points="172,470 167,462  177,462" style="fill:white;stroke:black;stroke-width:1" />
<polygon points="180,337 175,329  185,329" style="fill:white;stroke:black;stroke-width:1" />
<polygon points="180,473 175,465  185,465" style="fill:white;stroke:black;stroke-width:1" />
<polygon points="183,336 178,328  188,328" style="fill:white;stroke:black;stroke-width:1" />
<polygon points="183,474 178,466  188,466" style="fill:white;stroke:black;stroke-width:1" />
<polygon points="192,333 187,325  197,325" style="fill:white;stroke:black;stroke-width:1" />
<polygon points="192,477 187,469  197,469" style="fill:white;stroke:black;stroke-width:1" />
<polygon points="195,332 190,324  200,324" style="fill:white;stroke:black;stroke-width:1" />
<polygon points="195,478 190,470  200,470" style="fill:white;stroke:black;stroke-width:1" />
<polygon points="198,331 193,323  203,323" style="fill:white;stroke:black;stroke-width:1" />
<polygon points="198,479 193,471  203,471" style="fill:white;stroke:black;stroke-width:1" />
<polygon points="205,329 200,321  210,321" style="fill:white;stroke:black;stroke-width:1" />
<polygon points="205,481 200,473  210,473" style="fill:white;stroke:black;stroke-width:1" />
<polygon points="216,326 211,318  221,318" style="fill:white;stroke:black;stroke-width:1" />
<polygon points="216,484 211,476  221,476" style="fill:white;stroke:black;stroke-width:1" />
<polygon points="220,325 215,317  225,317" style="fill:white;stroke:black;stroke-width:1" />
<polygon points="220,485 215,477  225,477" style="fill:white;stroke:black;stroke-width:1" />
<polygon points="224,324 219,316  229,316" style="fill:white;stroke:black;stroke-width:1" />
<polygon points="224,486 219,478  229,478" style="fill:white;stroke:black;stroke-width:1" />
<polygon points="237,321 232,313  242,313" style="fill:white;stroke:black;stroke-width:1" />
<polygon points="237,489 232,481  242,481" style="fill:white;stroke:black;stroke-width:1" />
<polygon points="242,320 237,312  247,312" style="fill:white;stroke:black;stroke-width:1" />
<polygon points="242,490 237,482  247,482" style="fill:white;stroke:black;stroke-width:1" />
<polygon points="247,319 242,311  252,311" style="fill:white;stroke:black;stroke-width:1" />
<polygon points="247,491 242,483  252,483" style="fill:white;stroke:black;stroke-width:1" />
<polygon points="252,318 247,310  257,310" style="fill:white;stroke:black;stroke-width:1" />
<polygon points="252,492 247,484  257,484" style="fill:white;stroke:black;stroke-width:1" />
<polygon points="263,316 258,308  268,308" style="fill:white;stroke:black;stroke-width:1" />
<polygon points="263,494 258,486  268,486" style="fill:white;stroke:black;stroke-width:1" />
<polygon points="269,315 264,307  274,307" style="fill:white;stroke:black;stroke-width:1" />
<polygon points="269,495 264,487  274,487" style="fill:white;stroke:black;stroke-width:1" />
<polygon points="290,312 285,304  295,304" style="fill:white;stroke:black;stroke-width:1" />
<polygon points="290,498 285,490  295,490" style="fill:white;stroke:black;stroke-width:1" />
<polygon points="298,311 293,303  303,303" style="fill:white;stroke:black;stroke-width:1" />
<polygon points="298,499 293,491  303,491" style="fill:white;stroke:black;stroke-width:1" />
<polygon points="306,310 301,302  311,302" style="fill:white;stroke:black;stroke-width:1" />
<polygon points="306,500 301,492  311,492" style="fill:white;stroke:black;stroke-width:1" />
<polygon points="316,309 311,301  321,301" style="fill:white;stroke:black;stroke-width:1" />
<polygon points="316,501 311,493  321,493" style="fill:white;stroke:black;stroke-width:1" />
<polygon points="327,308 322,300  332,300" style="fill:white;stroke:black;stroke-width:1" />
<polygon points="327,502 322,494  332,494" style="fill:white;stroke:black;stroke-width:1" />
<polygon points="340,307 335,299  345,299" style="fill:white;stroke:black;stroke-width:1" />
<polygon points="340,503 335,495  345,495" style="fill:white;stroke:black;stroke-width:1" />
<polygon points="341,307 336,299  346,299" style="fill:white;stroke:black;stroke-width:1" />
<polygon points="341,503 336,495  346,495" style="fill:white;stroke:black;stroke-width:1" />
<polygon points="357,306 352,298  362,298" style="fill:white;stroke:black;stroke-width:1" />
<polygon points="357,504 352,496  362,496" style="fill:white;stroke:black;stroke-width:1" />
<polygon points="358,306 353,298  363,298" style="fill:white;stroke:black;stroke-width:1" />
<polygon points="358,504 353,496  363,496" style="fill:white;stroke:black;stroke-width:1" />
<polygon points="391,305 386,297  396,297" style="fill:white;stroke:black;stroke-width:1" />
<polygon points="391,505 386,497  396,497" style="fill:white;stroke:black;stroke-width:1" />
<polygon points="392,305 387,297  397,297" style="fill:white;stroke:black;stroke-width:1" />
<polygon points="392,505 387,497  397,497" style="fill:white;stroke:black;stroke-width:1" />
<polygon points="393,305 388,297  398,297" style="fill:white;stroke:black;stroke-width:1" />
<polygon points="393,505 388,497  398,497" style="fill:white;stroke:black;stroke-width:1" />
<polygon points="394,305 389,297  399,297" style="fill:white;stroke:black;stroke-width:1" />
<polygon points="394,505 389,497  399,497" style="fill:white;stroke:black;stroke-width:1" />
<polygon points="395,305 390,297  400,297" style="fill:white;stroke:black;stroke-width:1" />
<polygon points="395,505 390,497  400,497" style="fill:white;stroke:black;stroke-width:1" />
<polygon points="396,305 391,297  401,297" style="fill:white;stroke:black;stroke-width:1" />
<polygon points="396,505 391,497  401,497" style="fill:white;stroke:black;stroke-width:1" />
<polygon points="397,305 392,297  402,297" style="fill:white;stroke:black;stroke-width:1" />
<polygon points="397,505 392,497  402,497" style="fill:white;stroke:black;stroke-width:1" />
<polygon points="398,305 393,297  403,297" style="fill:white;stroke:black;stroke-width:1" />
<polygon points="398,505 393,497  403,497" style="fill:white;stroke:black;stroke-width:1" />
<polygon points="399,305 394,297  404,297" style="fill:white;stroke:black;stroke-width:1" />
<polygon points="399,505 394,497  404,497" style="fill:white;stroke:black;stroke-width:1" />
<polygon points="400,305 395,297  405,297" style="fill:white;stroke:black;stroke-width:1" />
<polygon points="400,505 395,497  405,497" style="fill:white;stroke:black;stroke-width:1" />
<polygon points="401,305 396,297  406,297" style="fill:white;stroke:black;stroke-width:1" />
<polygon points="401,505 396,497  406,497" style="fill:white;stroke:black;stroke-width:1" />
<polygon points="402,305 397,297  407,297" style="fill:white;stroke:black;stroke-width:1" />
<polygon points="402,505 397,497  407,497" style="fill:white;stroke:black;stroke-width:1" />
<polygon points="403,305 398,297  408,297" style="fill:white;stroke:black;stroke-width:1" />
<polygon points="403,505 398,497  408,497" style="fill:white;stroke:black;stroke-width:1" />
<polygon points="404,305 399,297  409,297" style="fill:white;stroke:black;stroke-width:1" />
<polygon points="404,505 399,497  409,497" style="fill:white;stroke:black;stroke-width:1" />
<polygon points="405,305 400,297  410,297" style="fill:white;stroke:black;stroke-width:1" />
<polygon points="405,505 400,497  410,497" style="fill:white;stroke:black;stroke-width:1" />
<polygon points="406,305 401,297  411,297" style="fill:white;stroke:black;stroke-width:1" />
<polygon points="406,505 401,497  411,497" style="fill:white;stroke:black;stroke-width:1" />
<polygon points="407,305 402,297  412,297" style="fill:white;stroke:black;stroke-width:1" />
<polygon points="407,505 402,497  412,497" style="fill:white;stroke:black;stroke-width:1" />
<polygon points="408,305 403,297  413,297" style="fill:white;stroke:black;stroke-width:1" />
<polygon points="408,505 403,497  413,497" style="fill:white;stroke:black;stroke-width:1" />
<polygon points="409,305 404,297  414,297" style="fill:white;stroke:black;stroke-width:1" />
<polygon points="409,505 404,497  414,497" style="fill:white;stroke:black;stroke-width:1" />
<polygon points="442,306 437,298  447,298" style="fill:white;stroke:black;stroke-width:1" />
<polygon points="442,504 437,496  447,496" style="fill:white;stroke:black;stroke-width:1" />
<polygon points="443,306 438,298  448,298" style="fill:white;stroke:black;stroke-width:1" />
<polygon points="443,504 438,496  448,496" style="fill:white;stroke:black;stroke-width:1" />
<polygon points="459,307 454,299  464,299" style="fill:white;stroke:black;stroke-width:1" />
<polygon points="459,503 454,495  464,495" style="fill:white;stroke:black;stroke-width:1" />
<polygon points="460,307 455,299  465,299" style="fill:white;stroke:black;stroke-width:1" />
<polygon points="460,503 455,495  465,495" style="fill:white;stroke:black;stroke-width:1" />
<polygon points="473,308 468,300  478,300" style="fill:white;stroke:black;stroke-width:1" />
<polygon points="473,502 468,494  478,494" style="fill:white;stroke:black;stroke-width:1" />
<polygon points="484,309 479,301  489,301" style="fill:white;stroke:black;stroke-width:1" />
<polygon points="484,501 479,493  489,493" style="fill:white;stroke:black;stroke-width:1" />
<polygon points="494,310 489,302  499,302" style="fill:white;stroke:black;stroke-width:1" />
<polygon points="494,500 489,492  499,492" style="fill:white;stroke:black;stroke-width:1" />
<polygon points="502,311 497,303  507,303" style="fill:white;stroke:black;stroke-width:1" />
<polygon points="502,499 497,491  507,491" style="fill:white;stroke:black;stroke-width:1" />
<polygon points="510,312 505,304  515,304" style="fill:white;stroke:black;stroke-width:1" />
<polygon points="510,498 505,490  515,490" style="fill:white;stroke:black;stroke-width:1" />
<polygon points="531,315 526,307  536,307" style="fill:white;stroke:black;stroke-width:1" />
<polygon points="531,495 526,487  536,487" style="fill:white;stroke:black;stroke-width:1" />
<polygon points="537,316 532,308  542,308" style="fill:white;stroke:black;stroke-width:1" />
<polygon points="537,494 532,486  542,486" style="fill:white;stroke:black;stroke-width:1" />
<polygon points="548,318 543,310  553,310" style="fill:white;stroke:black;stroke-width:1" />
<polygon points="548,492 543,484  553,484" style="fill:white;stroke:black;stroke-width:1" />
<polygon points="553,319 548,311  558,311" style="fill:white;stroke:black;stroke-width:1" />
<polygon points="553,491 548,483  558,483" style="fill:white;stroke:black;stroke-width:1" />
<polygon points="558,320 553,312  563,312" style="fill:white;stroke:black;stroke-width:1" />
<polygon points="558,490 553,482  563,482" style="fill:white;stroke:black;stroke-width:1" />
<polygon points="563,321 558,313  568,313" style="fill:white;stroke:black;stroke-width:1" />
<polygon points="563,489 558,481  568,481" style="fill:white;stroke:black;stroke-width:1" />
<polygon points="576,324 571,316  581,316" style="fill:white;stroke:black;stroke-width:1" />
<polygon points="576,486 571,478  581,478" style="fill:white;stroke:black;stroke-width:1" />
<polygon points="580,325 575,317  585,317" style="fill:white;stroke:black;stroke-width:1" />
<polygon points="580,485 575,477  585,477" style="fill:white;stroke:black;stroke-width:1" />
<polygon points="584,326 579,318  589,318" style="fill:white;stroke:black;stroke-width:1" />
<polygon points="584,484 579,476  589,476" style="fill:white;stroke:black;stroke-width:1" />
<polygon points="595,329 590,321  600,321" style="fill:white;stroke:black;stroke-width:1" />
<polygon points="595,481 590,473  600,473" style="fill:white;stroke:black;stroke-width:1" />
<polygon points="602,331 597,323  607,323" style="fill:white;stroke:black;stroke-width:1" />
<polygon points="602,479 597,471  607,471" style="fill:white;stroke:black;stroke-width:1" />
<polygon points="605,332 600,324  610,324" style="fill:white;stroke:black;stroke-width:1" />
<polygon points="605,478 600,470  610,470" style="fill:white;stroke:black;stroke-width:1" />
<polygon points="608,333 603,325  613,325" style="fill:white;stroke:black;stroke-width:1" />
<polygon points="608,477 603,469  613,469" style="fill:white;stroke:black;stroke-width:1" />
<polygon points="617,336 612,328  622,328" style="fill:white;stroke:black;stroke-width:1" />
<polygon points="617,474 612,466  622,466" style="fill:white;stroke:black;stroke-width:1" />
<polygon points="620,337 615,329  625,329" style="fill:white;stroke:black;stroke-width:1" />
<polygon points="620,473 615,465  625,465" style="fill:white;stroke:black;stroke-width:1" />
<polygon points="628,340 623,332  633,332" style="fill:white;stroke:black;stroke-width:1" />
<polygon points="628,470 623,462  633,462" style="fill:white;stroke:black;stroke-width:1" />
<polygon points="633,342 628,334  638,334" style="fill:white;stroke:black;stroke-width:1" />
<polygon points="633,468 628,460  638,460" style="fill:white;stroke:black;stroke-width:1" />
<polygon points="640,345 635,337  645,337" style="fill:white;stroke:black;stroke-width:1" />
<polygon points="640,465 635,457  645,457" style="fill:white;stroke:black;stroke-width:1" />
<polygon points="658,354 653,346  663,346" style="fill:white;stroke:black;stroke-width:1" />
<polygon points="658,456 653,448  663,448" style="fill:white;stroke:black;stroke-width:1" />
<polygon points="668,360 663,352  673,352" style="fill:white;stroke:black;stroke-width:1" />
<polygon points="668,450 663,442  673,442" style="fill:white;stroke:black;stroke-width:1" />
<polygon points="671,362 666,354  676,354" style="fill:white;stroke:black;stroke-width:1" />
<polygon points="671,448 666,440  676,440" style="fill:white;stroke:black;stroke-width:1" />
<polygon points="675,365 670,357  680,357" style="fill:white;stroke:black;stroke-width:1" />
<polygon points="675,445 670,437  680,437" style="fill:white;stroke:black;stroke-width:1" />
<polygon points="680,369 675,361  685,361" style="fill:white;stroke:black;stroke-width:1" />
<polygon points="680,441 675,433  685,433" style="fill:white;stroke:black;stroke-width:1" />
<polygon points="681,370 676,362  686,362" style="fill:white;stroke:black;stroke-width:1" />
<polygon points="681,440 676,432  686,432" style="fill:white;stroke:black;stroke-width:1" />
<polygon points="682,371 677,363  687,363" style="fill:white;stroke:black;stroke-width:1" />
<polygon points="682,439 677,431  687,431" style="fill:white;stroke:black;stroke-width:1" />
<polygon points="687,376 682,368  692,368" style="fill:white;stroke:black;stroke-width:1" />
<polygon points="687,434 682,426  692,426" style="fill:white;stroke:black;stroke-width:1" />
<polygon points="688,377 683,369  693,369" style="fill:white;stroke:black;stroke-width:1" />
<polygon points="688,433 683,425  693,425" style="fill:white;stroke:black;stroke-width:1" />
<polygon points="689,378 684,370  694,370" style="fill:white;stroke:black;stroke-width:1" />
<polygon points="689,432 684,424  694,424" style="fill:white;stroke:black;stroke-width:1" />
<polygon points="692,382 687,374  697,374" style="fill:white;stroke:black;stroke-width:1" />
<polygon points="692,428 687,420  697,420" style="fill:white;stroke:black;stroke-width:1" />
<polygon points="694,385 689,377  699,377" style="fill:white;stroke:black;stroke-width:1" />
<polygon points="694,425 689,417  699,417" style="fill:white;stroke:black;stroke-width:1" />
<polygon points="695,387 690,379  700,379" style="fill:white;stroke:black;stroke-width:1" />
<polygon points="695,423 690,415  700,415" style="fill:white;stroke:black;stroke-width:1" />
<polygon points="696,389 691,381  701,381" style="fill:white;stroke:black;stroke-width:1" />
<polygon points="696,421 691,413  701,413" style="fill:white;stroke:black;stroke-width:1" />
<polygon points="697,391 692,383  702,383" style="fill:white;stroke:black;stroke-width:1" />
<polygon points="697,419 692,411  702,411" style="fill:white;stroke:black;stroke-width:1" />
<polygon points="699,397 694,389  704,389" style="fill:white;stroke:black;stroke-width:1" />
<polygon points="699,413 694,405  704,405" style="fill:white;stroke:black;stroke-width:1" />
<polygon points="700,402 695,394  705,394" style="fill:white;stroke:black;stroke-width:1" />
<polygon points="700,403 695,395  705,395" style="fill:white;stroke:black;stroke-width:1" />
<polygon points="700,404 695,396  705,396" style="fill:white;stroke:black;stroke-width:1" />
<polygon points="700,405 695,397  705,397" style="fill:white;stroke:black;stroke-width:1" />
<polygon points="700,406 695,398  705,398" style="fill:white;stroke:black;stroke-width:1" />
<polygon points="700,407 695,399  705,399" style="fill:white;stroke:black;stroke-width:1" />
<polygon points="700,408 695,400  705,400" style="fill:white;stroke:black;stroke-width:1" />

</svg>